<mxfile host="app.diagrams.net" agent="Mozilla/5.0 (Windows NT 10.0; Win64; x64) AppleWebKit/537.36 (KHTML, like Gecko) Chrome/134.0.0.0 Safari/537.36" version="26.1.1">
  <diagram name="Page-1" id="OtSjQBPQP8TTFmTrqotp">
    <mxGraphModel dx="574" dy="298" grid="1" gridSize="10" guides="1" tooltips="1" connect="1" arrows="1" fold="1" page="1" pageScale="1" pageWidth="827" pageHeight="1169" math="0" shadow="0">
      <root>
        <mxCell id="0" />
        <mxCell id="1" parent="0" />
        <mxCell id="jKN2Zn_ct08RqaABAzar-1" value="AWS Cloud" style="points=[[0,0],[0.25,0],[0.5,0],[0.75,0],[1,0],[1,0.25],[1,0.5],[1,0.75],[1,1],[0.75,1],[0.5,1],[0.25,1],[0,1],[0,0.75],[0,0.5],[0,0.25]];outlineConnect=0;gradientColor=none;html=1;whiteSpace=wrap;fontSize=12;fontStyle=0;container=1;pointerEvents=0;collapsible=0;recursiveResize=0;shape=mxgraph.aws4.group;grIcon=mxgraph.aws4.group_aws_cloud_alt;strokeColor=#232F3E;fillColor=none;verticalAlign=top;align=left;spacingLeft=30;fontColor=#232F3E;dashed=0;" vertex="1" parent="1">
          <mxGeometry x="170" y="220" width="460" height="260" as="geometry" />
        </mxCell>
        <mxCell id="jKN2Zn_ct08RqaABAzar-21" value="EKS" style="fillColor=none;strokeColor=#5A6C86;dashed=1;verticalAlign=top;fontStyle=0;fontColor=#5A6C86;whiteSpace=wrap;html=1;" vertex="1" parent="jKN2Zn_ct08RqaABAzar-1">
          <mxGeometry x="170" y="20" width="170" height="220" as="geometry" />
        </mxCell>
        <mxCell id="jKN2Zn_ct08RqaABAzar-7" value="" style="shape=image;verticalLabelPosition=bottom;labelBackgroundColor=default;verticalAlign=top;aspect=fixed;imageAspect=0;image=https://upload.wikimedia.org/wikipedia/commons/thumb/3/39/Kubernetes_logo_without_workmark.svg/1055px-Kubernetes_logo_without_workmark.svg.png;" vertex="1" parent="jKN2Zn_ct08RqaABAzar-1">
          <mxGeometry x="170" y="20" width="51.46" height="50" as="geometry" />
        </mxCell>
        <mxCell id="jKN2Zn_ct08RqaABAzar-8" value="Amazon API Gateway" style="sketch=0;outlineConnect=0;fontColor=#232F3E;gradientColor=none;strokeColor=#ffffff;fillColor=#232F3E;dashed=0;verticalLabelPosition=middle;verticalAlign=bottom;align=center;html=1;whiteSpace=wrap;fontSize=10;fontStyle=1;spacing=3;shape=mxgraph.aws4.productIcon;prIcon=mxgraph.aws4.api_gateway;" vertex="1" parent="jKN2Zn_ct08RqaABAzar-1">
          <mxGeometry y="75" width="80" height="110" as="geometry" />
        </mxCell>
        <mxCell id="jKN2Zn_ct08RqaABAzar-12" value="" style="sketch=0;outlineConnect=0;fontColor=#232F3E;gradientColor=none;fillColor=#8C4FFF;strokeColor=none;dashed=0;verticalLabelPosition=bottom;verticalAlign=top;align=center;html=1;fontSize=12;fontStyle=0;aspect=fixed;pointerEvents=1;shape=mxgraph.aws4.network_load_balancer;" vertex="1" parent="jKN2Zn_ct08RqaABAzar-1">
          <mxGeometry x="103" y="90.74000000000001" width="50" height="50" as="geometry" />
        </mxCell>
        <mxCell id="jKN2Zn_ct08RqaABAzar-22" value="Postgres DB" style="sketch=0;points=[[0,0,0],[0.25,0,0],[0.5,0,0],[0.75,0,0],[1,0,0],[0,1,0],[0.25,1,0],[0.5,1,0],[0.75,1,0],[1,1,0],[0,0.25,0],[0,0.5,0],[0,0.75,0],[1,0.25,0],[1,0.5,0],[1,0.75,0]];outlineConnect=0;fontColor=#232F3E;fillColor=#C925D1;strokeColor=#ffffff;dashed=0;verticalLabelPosition=bottom;verticalAlign=top;align=center;html=1;fontSize=12;fontStyle=0;aspect=fixed;shape=mxgraph.aws4.resourceIcon;resIcon=mxgraph.aws4.aurora;" vertex="1" parent="jKN2Zn_ct08RqaABAzar-1">
          <mxGeometry x="360" y="75" width="78" height="78" as="geometry" />
        </mxCell>
        <mxCell id="jKN2Zn_ct08RqaABAzar-25" value="" style="edgeStyle=orthogonalEdgeStyle;html=1;endArrow=block;elbow=vertical;startArrow=none;endFill=1;strokeColor=#545B64;rounded=0;" edge="1" parent="jKN2Zn_ct08RqaABAzar-1">
          <mxGeometry width="100" relative="1" as="geometry">
            <mxPoint x="73" y="115.45" as="sourcePoint" />
            <mxPoint x="103" y="115.45" as="targetPoint" />
          </mxGeometry>
        </mxCell>
        <mxCell id="jKN2Zn_ct08RqaABAzar-27" value="" style="group" vertex="1" connectable="0" parent="jKN2Zn_ct08RqaABAzar-1">
          <mxGeometry x="240" y="49.26000000000002" width="80" height="80" as="geometry" />
        </mxCell>
        <mxCell id="jKN2Zn_ct08RqaABAzar-28" value="" style="fillColor=#EFF0F3;strokeColor=none;dashed=0;verticalAlign=top;fontStyle=0;fontColor=#232F3D;whiteSpace=wrap;html=1;" vertex="1" parent="jKN2Zn_ct08RqaABAzar-27">
          <mxGeometry width="80" height="80" as="geometry" />
        </mxCell>
        <mxCell id="jKN2Zn_ct08RqaABAzar-29" value="" style="shape=image;verticalLabelPosition=bottom;labelBackgroundColor=default;verticalAlign=top;aspect=fixed;imageAspect=0;image=data:image/png,iVBORw0KGgoAAAANSUhEUgAAATYAAACjCAMAAAA3vsLfAAAAhFBMVEX///9tsz9rsjxpsTlosTdkrzD+//1kry+Fv2Da6tDJ4rtttDzq8+T6/Ph9u1STxXW+3KygzYWLwmmp0ZFxtUbw9+t8ulb2+vOz1p7C3rK62qfz+e/s9efX6czN5L/j8Nuu1JiayX3P5MRfrSWPxG6IwGWkzot3uEzf7dWey4JcrB7V58zELbUtAAATzElEQVR4nO1daZeiPBOVJAguiK0o7rhrP+///38vSyqphAo607Z9eg73w5yxxZBcKpXaEjqdFi1atGjRokWLFi1atGjRokWLFi1atGjxLehP5of7T3fit6EbB5wJf/zT/fhlWAVeDua38vYn6N5YQZsnrj/dk1+F6FSy5vH4p3vyq9AdSGn7/Ome/C58ipK2YPfTHfldmCWCMeYfuj/dkV+G2SFJRovop7vx+5DOWlFr0aJFixcjzXp/gPvsO/oQzYbr72jXje5mONyYC3E3ff7Xx4Mn/ghssnxyhPfVYZ4kyfw8XWZGB7M4SQ4ZfFrvPkYe415y2W9tg6K7mifhWK6Ym2V8S+bS6Ij2o2QCxm6UX6Y+dIbLj/CWJOFh5XD0u7196OVmH/MuC9WN2UfizZfPjWw3ErxyU54H95PVY3spWo64z4u+MZ5zPbrqIWwHuakqxLb8sN4nfv6xCGfk141WxhPvxr4yatdXr2zPPxc3j0b5NzxYVPc6lx+m5Yf7OW8b7hsSXkS0nIvqjsUt+blX/nVzK34k22hGevD/lDOviteE2YOme6HZNCuGUJGdznn5F6/4sMt7a7R866NWln7lQuVCcEzgQr8Qib38phxzFUXygmPOyVQI4xHHtlLZzs2ecXEt+hVXPxO9h6zNQv9vSCvvlWwbm14KXv+NJPteDdI75U0shP3cmPjUAjepWuGXzliPVRxyMUxQ4KgbVpflfv3sbA9JjIwn3F3Ue+Zf1p1Uki32j1hLQ2E38Dx40iRvfVqK+aDQin1Jm9/vTKnnJi4gIN1R1QwLj4FukJ+LCIj8fxE4iuRl/Ly+1IfER0jeog/yjqN0BrR9PKKN7PPT4KHbtcmYGiRjmEB/VXIqP+zGdA/EZW3S5t3mqJViZCRt7HygBEGgmNyn644zrhtvxP0LslagpICG1BOFQktuifDVqlPOKaCNH+SfC91trEwwUEWbh75kxVpC0pZ/lJeYsu4foWMLxFp5V7itOCTy1g9o657r2uePwDyXHZIBa8ki26w3WW43+NXNDGmTgxR8fpguPiYemtjykWja8FiL1dNBW3mJGCRJblShWX2RHdsKdJU3mS4W07NcaYCMR7Ttgi+R5jXE8RdV71iygb+s+5f8ueZdXWPaKh4+79UCuxknalRsMKRoyxu47Eud6qSNifnqvtkMt1NPi4Wo9HAUqj9xtpCdmy1veNo9oC2d/5XpYSBwrAqxFC3DZtqeGbuUZGDaxAgt+KlWTcVqWaNN3MbwIFy0sQHYxp31WbdWCe9S3ViEG3RbrPAe0Lb60nog+zwhm47CahS+ZTGl0rBAtInQnOh7PbBNjbZgqo1sF20c20WgYmGWqsuE1fGFnnnNtG28rwtbbnkdqbZBkH2HMGra2M32Aj9hpJUGw7SdsPA6aAsM5yhNYM25FSKoNBsf2UbAVT+uRto+vriMQneaaHMl4zRtpxqxioGyaUybwZqDNn4x+VBTihdCfVWPpP48b0oQm2j7qvEBCKhigu5Fal7/TK61ijZqTVFfFrKKaBOms0jT5lue+FD9eoiooW67hWnaSNvki8YHgA2oWIt6rHwwJSaqYiYY1r+MYKnKfQhst1lyTdMmNtZVIXyR32kIYx5QykM10UDb7rGwMeH7T4ikoCIGW6TzRbiyewm0sZDq21ToljVtom9eRXsJNzswE4PtP9S9om+7euxcpTUrsgbuTXf9jyfiI5Te72Jh5mKAglqYNrGgOncEH2KCaGOJRQhN26Wm6oGMoTY/yCet1FYDbYuHYsTn5fy5s8f8Unr/PrBCM+yCQptAW0Cuw0NJCBsh2mrqiHblJzZtU0Qb/N+3BLfC+qFPOnvC+JDi8YQrQQ7+aEdnuD9SoU1FGxl7nYHmHmDa7GjjX9AGkuf/j2RFkuKm7fOxsKmClNtjcQupSG9vZE9w5s97Jm2nDfHDzhpu6eNJaquCv6BN6Tk6EJk8oO0J40Oo4Eb8eMmlKxqLWLdFHJf2gZI20hymaGOJbcl8Rdpo2h5Jm8P4YEJPLM2Eoo0JUQvEym9udC5rs5pbP2GnvkEbGSDeJLAsItpGtp3zFd1GuzayQRdtO0egbr5fxBDzqtPGb/vl9EbLqe9KW0S96Zz5KJDGSsNKhSnJNJGKOoUvpk2ZGOQCnjWvpF1SWzG/dJO3cuWs0cZLe38d05ST9qO8XTaeeFrmrDAl9QuI+BYFfy+lTVk2Z+q2/WbayMgH4/LByxHZtKnI2Z7kTTRXgm7GIyCOeSnyEgbUYgLyXUQqX0qbDp5SSmXSaICsKYuCcTXdByRtuq0VaZHQ6gJhDDO1MDq0c0VYUEOwjgrN/VLaIoiHUMpheAIRIGm7Uuop0GtL1XSNNq0OSN5oIwQDPJvC1lS01Wz/DgrNFN7uS2lTclz3wTqdc2NQPANSDda0LdmlpQ27Agtqnj7eVnHg6kn3G4JbOiZWaKDX0qYWw/ptl4G7Sx3a+AjQyrKkdZs3QAY9lVQzjJB0cfio2RZyAIa05fe2sl9qinr+9uW0qahl7Slvm6O7R2KGYX0Oz6NGG7tp3qI5wT3yj9dzXwj/YLkAchYU+gDnEoI9vuiuBsbmnZfThha0wDBClsgwJ2iLiMgHTtup+UfYbQOtvnuUftRGSNU54V0xcbD6i5mVuRIXpVjXqLKhSt+8mLZZotu/KDnIYuzOELRRxgdSbHsli6SXoAWbMkO0+pOxXSa8eCeZW4/l5Cuj1gZtHheTVS/Lst2Hzvd5orKtXkwbSl3lt70stvd7b3FmhhTUaaMiHyj5hMggaMstYiVvZLxOgBGi9Sf3k/Cw3+9jVVVUpkh0elmOtvDBuI8cMbATX02boZd5Va4H0wmGUXN5KONDB2/GSO9RtFVFBB37qemv57LPS9QQM+sU2ChCtIlpQtBf3kk+gpfTtnZVC/l7CFHZrhcV+dCORg/XYJC0oTgEZEINwCyOrg6fHwxEXTrTG1BXMhUBfzltneGc5C0YK8PSsoW7MfEDHwQoDfHySNMmU+UFqFKh0nEqsZuT0XQWmIGjvIdHr74qi0SrW5mPqdZVkzbJ1AHTdn5IW1EAV+sbyx05FT63TCcq8lEEniuYq4WDNu1OzKjppdVCuoJaGXQvRQeOgGRW0WU+hDPKZ0mfQdSd/guqxQGV5e/tq+StqvRyhWgxMOWHidsRxWPNbJopTjBQoGdmxkVctHGV9CHT0yiBt16GA1R7las4dgWL2AgcRYtEx/mYEGbRcVZKI68FdwsTtGhcVGZ2r/zAvVq4uKp8ZGY6NzsMBCRJinKeomNg8LK5qQ7IyAcf0t+6aCvrRmWvqeaMkEw2jm9F2jAHTyYrTakVb5utQg8uO+wsd3F78wN/RMUzl4P8mznkPJLiMiJ+NZzk7TJbzQ8X8pbCC6vKI8jOWrkeclYplWGXHzlpUyGyNbkInqzxRcPeMcc2M2La9TDlrNcfj8fHOxEQSLfHWtW97MLx2Oviy+jqzvvxqIUwzeDpze5Fz3pyBijjy4qYk5EPpYy2lig6afOC1PFF9RxGnSfQHN39TowHp+BM5MsWEOFgZiiHTruoMJlNagNtYBusHAv5E53/MdqWp3yK8GBiaYJsojSOWbHUoQtOQdN2bTPMTZvyPeiUBF0TYuHHaAM7JQjOy/us5C4dLi8n7daYZdyOMSZyjBtbUblpU+owo81tulLAxE/RlmpzgefLQXLLMfB97AeZWxioUA/SRLUp7KbNA3GCBFmNNzJnbODHpM2kodxfZPzBCtKTkR7kxtsrQhNtgaQldeTrG8ruAT9G2y5weX0la3Z/HKUyypqoeeZNtEk5jhwl03UHh+i9vAtZw/Kd2I1qzosec207lGMHggqR/RFtsvHo4srRP9z8B2qxXoL67Yj6Z7K4gPmDaa3yk4pXNNKmoyc1xsEtJYMg5W8fr6WHKv5L15l/M7rZIhwExSYJYIzl68N8T6hkhxpStPVt2lQEJqpN75M0s6kAe8XrY9pm58Kxmbx5u7JCNOxfz6NkUAQpB96t2K1L9tkxQlWN2avZJ0Jqx2mNNthskDpCjM/Q1omOi8XxRw/x6K43WW/b22bDmbO/F1q3qTLirB6B4uM0b7q+B1BlhNcOA0RH3X49HJsQVNKKMib8WxwndStZGS13xy4a9jBB/2tQ010SArxayi9nnNpErzb3Otv8d86hc+0UAg32BxuwVClfXevJCx5V0fwiOGapsnfrys0BNpC/iFz6cv6jmv61cNSG6xD7s1ty1RzdOITNDlT+bjhmoVJuxydn6QnyAVSm1Pvnjop0bLpV+rv73CYsfb1DPCEJ013G8eKnzNkXwhVVBGvBESSxLhfAREazBtG2NAw494n9h69Htj/sv+8+DvHQsZJnTrfQIWMyNZHTKk3dqnSJk7tNX4uV73Phk7XfL8GdjlSqkT1xlopO8g5pzwoCJ7Ch9ERsfHwtemVymn2j1UMLiBYgBxWINZ15pY02FS2GZPX3n+4qB/WNK1EtYVANVbuQveYdbGKuYisZfaVKhMEmPf/baYNaum9UB7QRgpyhbdKwnKIjIBx6Uufk30cblNYk33cLhxGCdj4NnSdsMXyeF50iRRv3/ynaHJtDcZF3eqVj7YKttM9EF6Vhsf23aHO4UGKCQj3bsE6cEDGyjGZ0rBjvXfzHaLvTe5H9T+x+7y7MrLDyYlw1QRZ8eajmq2PT1h1ud7ut22VI77v8+01DCKC7yVvYUZHrt9DmioQEZnX0cDWRBVZ+ztnSML6iiSPkOUcii2nbHsQpyHFKqLMtOtvprfw6OIl4STIXLWMhL7lNzbKXdQ8kP+ltHXVJr8DMFSSz3zrQzba7fn+3te3VlC59RXXiBRRtxzQ+wQ+YOH3aIzveTjr9xgNRT01He1RtkDehdzF0uof/dLo4Z/W//ReYaQa5YaoY4OSpDMBm4DBRzIJAoI1fjeM1cyVppNW68ckqQA1ulkTe7bg8P30A9wd7LKfvU6UuV0DcHp8A2uk7iwG4MVygrVbPzDBvs1FdcpkZr1sSN/TBWfmv1glyW+9L4DyhQu5fbsD64DzdwqozGjqyWsX5IuomETnfGd5AfyQfk5BJnnfS1nEshEV3Rk1CHo09p69v7wc2aCtP/dF7nVSwQm9I4T46Fwi1NVNF5GUbquPy/S+1Heinb6wpydwHojAR7hxmQLqcO/do1PcZYtpEMu339+pwAjaQrKiaaeafV7vlVVW965fiqNCp8K7L3eqsZK9yfteXky7O931qQXkhmg5P4WK0ymrMpffprem0Ix5a6wmizf8ov0uV/obDOsHTY0m1Bs/UkYhwalJP7cOWjt0W3BOo8892ygDZ9al66Rdi1niGOPO9y/Q4TCV33fVwd53zBknziJ3ymjYlOhF4KDL9rM9LA1MMjmpWv1F7MpUXo8oX1ead95i7JR4dDMVF4M0v8cd0+hlfRgO/mTPqXAZFGwpLDYGnoBQdMLzRWdSwy19qN3gBGF6l9/ArUP5vpC16fG5RkZKvzvJ9IoFaTxko2nBpJQhPWemp+uCviStKWQLlh9fHGXQPaHojbeqkkNeAOHNG0YYPf1LHpxVr6Qw4wWbyDl+hwoNGzSWsEky6L++k7WVHLFY9rh9Goo5gG6A/whJeBphAlIzdmzCPqxD3AY5RwQ4eKBhQbm+lrfdC2qijLBRtF/RH0FXlzoYlJUodoK2salLxbhw7AYGEnMtbaXviBLdnwWpH2HaQT4qnYBe/4xFmoJmkgV125aYKcgfu/6BaWj6s99L2MEv1NMhUm6INezuKtuKPMNlo2koPLGmiDSb3e2lzRkL+FPTx2Io2/C09SSnazElKS5v83Ztpe+Is1KdAJ5CVbsOjgdBy6farrQnYIZoZSwLYx0awSS2vP6Lb3MWQfwZH6aQ2QJDDA9vrS2c+w6IHgM04Vatg2gY4ogXLK/gW76btyy+ZqIZEBze1uYsWygs2ZlOZoGYeIlYRZRzFiINS8OIc5X28m7aXnCru2l+lnSu9zvaUE1oaFIbPUKELV1SvmJiBr4VOuVfnDILSfDttLzjDHp93YEC78j7M4iF4U3JPFpyxgkiBIhXgRG1fV+KmD64DslXG/G1V/V9/Y4LzjEAcOPosNXpvBDpB1urALPVELM1ZdeoNGCUqEA25xBTmudoIq7ZFlbpu/ZY6xK++n4M+GrOAGaY8T6cTvcMJpEuxJEbL4Wy4VbFaffKgfodB3NvMhvqdLX7tWGA2XxzC2+1RXP8V+KIRwtzFkmZQnKMDffVmer01mPmDm6ezeiqWhg6j40FyEypSio50nOp0YvF6P/M0uG8CeZbH06gf8aLQkILRm9GH+AQtfQU+kA69ogVFsBg6TMWyo/Ts/U6MG3fzPmDNzkgjqENH7EAyYyhcsqUC7eYbG6+EHuEDlNuyFDQbvEW9US8ofApMXBtqNlKpqYM+M8/68Yx5ndVyYcyuwl3UCnnEzcikmsQ+PpH1NbjTZ189JC1pzq1Vh7jwsJOhg+xZYL2dqZN+GFuJeVA/lcesgGJCfJrhvWiCBsD9d20m6RavOK1evvokcg1/e7TlIA0Dwf1iA2G08IQvOM//odKw2UdSfp1/77MLmW7cTbgvLxHJtf6qoumg/Lb4OnyisuBluC/O4R9gMn2itqe7PMTjSj13t+NDHF+XjnW321tO4zj+WB2d73SeHVcf+SXTJc3K+rjIbxAvju/fet+iRYsWLVq0aNGiRYsWLVq0aNGiRYsWLVq0aNGiRYsWLVq0aNGiRYsWLf4a/wfDfC+M88LzEAAAAABJRU5ErkJggg==;" vertex="1" parent="jKN2Zn_ct08RqaABAzar-27">
          <mxGeometry x="13.16032258064513" y="44.870000000000005" width="53.677419354838705" height="28.2258064516129" as="geometry" />
        </mxCell>
        <mxCell id="jKN2Zn_ct08RqaABAzar-30" value="" style="shape=image;verticalLabelPosition=bottom;labelBackgroundColor=default;verticalAlign=top;aspect=fixed;imageAspect=0;image=https://miro.medium.com/v2/resize:fit:256/1*2Q4FsymDIDtWS_aqiDbwSA.png;" vertex="1" parent="jKN2Zn_ct08RqaABAzar-27">
          <mxGeometry x="21.45322580645154" y="8.789999999999964" width="37.096774193548384" height="36.08064516129032" as="geometry" />
        </mxCell>
        <mxCell id="jKN2Zn_ct08RqaABAzar-26" value="" style="group" vertex="1" connectable="0" parent="jKN2Zn_ct08RqaABAzar-1">
          <mxGeometry x="240" y="139.26" width="80" height="80" as="geometry" />
        </mxCell>
        <mxCell id="jKN2Zn_ct08RqaABAzar-13" value="" style="fillColor=#EFF0F3;strokeColor=none;dashed=0;verticalAlign=top;fontStyle=0;fontColor=#232F3D;whiteSpace=wrap;html=1;" vertex="1" parent="jKN2Zn_ct08RqaABAzar-26">
          <mxGeometry width="80" height="80" as="geometry" />
        </mxCell>
        <mxCell id="jKN2Zn_ct08RqaABAzar-15" value="" style="shape=image;verticalLabelPosition=bottom;labelBackgroundColor=default;verticalAlign=top;aspect=fixed;imageAspect=0;image=data:image/png,iVBORw0KGgoAAAANSUhEUgAAATYAAACjCAMAAAA3vsLfAAAAhFBMVEX///9tsz9rsjxpsTlosTdkrzD+//1kry+Fv2Da6tDJ4rtttDzq8+T6/Ph9u1STxXW+3KygzYWLwmmp0ZFxtUbw9+t8ulb2+vOz1p7C3rK62qfz+e/s9efX6czN5L/j8Nuu1JiayX3P5MRfrSWPxG6IwGWkzot3uEzf7dWey4JcrB7V58zELbUtAAATzElEQVR4nO1daZeiPBOVJAguiK0o7rhrP+///38vSyqphAo607Z9eg73w5yxxZBcKpXaEjqdFi1atGjRokWLFi1atGjRokWLFi1atGjxLehP5of7T3fit6EbB5wJf/zT/fhlWAVeDua38vYn6N5YQZsnrj/dk1+F6FSy5vH4p3vyq9AdSGn7/Ome/C58ipK2YPfTHfldmCWCMeYfuj/dkV+G2SFJRovop7vx+5DOWlFr0aJFixcjzXp/gPvsO/oQzYbr72jXje5mONyYC3E3ff7Xx4Mn/ghssnxyhPfVYZ4kyfw8XWZGB7M4SQ4ZfFrvPkYe415y2W9tg6K7mifhWK6Ym2V8S+bS6Ij2o2QCxm6UX6Y+dIbLj/CWJOFh5XD0u7196OVmH/MuC9WN2UfizZfPjWw3ErxyU54H95PVY3spWo64z4u+MZ5zPbrqIWwHuakqxLb8sN4nfv6xCGfk141WxhPvxr4yatdXr2zPPxc3j0b5NzxYVPc6lx+m5Yf7OW8b7hsSXkS0nIvqjsUt+blX/nVzK34k22hGevD/lDOviteE2YOme6HZNCuGUJGdznn5F6/4sMt7a7R866NWln7lQuVCcEzgQr8Qib38phxzFUXygmPOyVQI4xHHtlLZzs2ecXEt+hVXPxO9h6zNQv9vSCvvlWwbm14KXv+NJPteDdI75U0shP3cmPjUAjepWuGXzliPVRxyMUxQ4KgbVpflfv3sbA9JjIwn3F3Ue+Zf1p1Uki32j1hLQ2E38Dx40iRvfVqK+aDQin1Jm9/vTKnnJi4gIN1R1QwLj4FukJ+LCIj8fxE4iuRl/Ly+1IfER0jeog/yjqN0BrR9PKKN7PPT4KHbtcmYGiRjmEB/VXIqP+zGdA/EZW3S5t3mqJViZCRt7HygBEGgmNyn644zrhtvxP0LslagpICG1BOFQktuifDVqlPOKaCNH+SfC91trEwwUEWbh75kxVpC0pZ/lJeYsu4foWMLxFp5V7itOCTy1g9o657r2uePwDyXHZIBa8ki26w3WW43+NXNDGmTgxR8fpguPiYemtjykWja8FiL1dNBW3mJGCRJblShWX2RHdsKdJU3mS4W07NcaYCMR7Ttgi+R5jXE8RdV71iygb+s+5f8ueZdXWPaKh4+79UCuxknalRsMKRoyxu47Eud6qSNifnqvtkMt1NPi4Wo9HAUqj9xtpCdmy1veNo9oC2d/5XpYSBwrAqxFC3DZtqeGbuUZGDaxAgt+KlWTcVqWaNN3MbwIFy0sQHYxp31WbdWCe9S3ViEG3RbrPAe0Lb60nog+zwhm47CahS+ZTGl0rBAtInQnOh7PbBNjbZgqo1sF20c20WgYmGWqsuE1fGFnnnNtG28rwtbbnkdqbZBkH2HMGra2M32Aj9hpJUGw7SdsPA6aAsM5yhNYM25FSKoNBsf2UbAVT+uRto+vriMQneaaHMl4zRtpxqxioGyaUybwZqDNn4x+VBTihdCfVWPpP48b0oQm2j7qvEBCKhigu5Fal7/TK61ijZqTVFfFrKKaBOms0jT5lue+FD9eoiooW67hWnaSNvki8YHgA2oWIt6rHwwJSaqYiYY1r+MYKnKfQhst1lyTdMmNtZVIXyR32kIYx5QykM10UDb7rGwMeH7T4ikoCIGW6TzRbiyewm0sZDq21ToljVtom9eRXsJNzswE4PtP9S9om+7euxcpTUrsgbuTXf9jyfiI5Te72Jh5mKAglqYNrGgOncEH2KCaGOJRQhN26Wm6oGMoTY/yCet1FYDbYuHYsTn5fy5s8f8Unr/PrBCM+yCQptAW0Cuw0NJCBsh2mrqiHblJzZtU0Qb/N+3BLfC+qFPOnvC+JDi8YQrQQ7+aEdnuD9SoU1FGxl7nYHmHmDa7GjjX9AGkuf/j2RFkuKm7fOxsKmClNtjcQupSG9vZE9w5s97Jm2nDfHDzhpu6eNJaquCv6BN6Tk6EJk8oO0J40Oo4Eb8eMmlKxqLWLdFHJf2gZI20hymaGOJbcl8Rdpo2h5Jm8P4YEJPLM2Eoo0JUQvEym9udC5rs5pbP2GnvkEbGSDeJLAsItpGtp3zFd1GuzayQRdtO0egbr5fxBDzqtPGb/vl9EbLqe9KW0S96Zz5KJDGSsNKhSnJNJGKOoUvpk2ZGOQCnjWvpF1SWzG/dJO3cuWs0cZLe38d05ST9qO8XTaeeFrmrDAl9QuI+BYFfy+lTVk2Z+q2/WbayMgH4/LByxHZtKnI2Z7kTTRXgm7GIyCOeSnyEgbUYgLyXUQqX0qbDp5SSmXSaICsKYuCcTXdByRtuq0VaZHQ6gJhDDO1MDq0c0VYUEOwjgrN/VLaIoiHUMpheAIRIGm7Uuop0GtL1XSNNq0OSN5oIwQDPJvC1lS01Wz/DgrNFN7uS2lTclz3wTqdc2NQPANSDda0LdmlpQ27Agtqnj7eVnHg6kn3G4JbOiZWaKDX0qYWw/ptl4G7Sx3a+AjQyrKkdZs3QAY9lVQzjJB0cfio2RZyAIa05fe2sl9qinr+9uW0qahl7Slvm6O7R2KGYX0Oz6NGG7tp3qI5wT3yj9dzXwj/YLkAchYU+gDnEoI9vuiuBsbmnZfThha0wDBClsgwJ2iLiMgHTtup+UfYbQOtvnuUftRGSNU54V0xcbD6i5mVuRIXpVjXqLKhSt+8mLZZotu/KDnIYuzOELRRxgdSbHsli6SXoAWbMkO0+pOxXSa8eCeZW4/l5Cuj1gZtHheTVS/Lst2Hzvd5orKtXkwbSl3lt70stvd7b3FmhhTUaaMiHyj5hMggaMstYiVvZLxOgBGi9Sf3k/Cw3+9jVVVUpkh0elmOtvDBuI8cMbATX02boZd5Va4H0wmGUXN5KONDB2/GSO9RtFVFBB37qemv57LPS9QQM+sU2ChCtIlpQtBf3kk+gpfTtnZVC/l7CFHZrhcV+dCORg/XYJC0oTgEZEINwCyOrg6fHwxEXTrTG1BXMhUBfzltneGc5C0YK8PSsoW7MfEDHwQoDfHySNMmU+UFqFKh0nEqsZuT0XQWmIGjvIdHr74qi0SrW5mPqdZVkzbJ1AHTdn5IW1EAV+sbyx05FT63TCcq8lEEniuYq4WDNu1OzKjppdVCuoJaGXQvRQeOgGRW0WU+hDPKZ0mfQdSd/guqxQGV5e/tq+StqvRyhWgxMOWHidsRxWPNbJopTjBQoGdmxkVctHGV9CHT0yiBt16GA1R7las4dgWL2AgcRYtEx/mYEGbRcVZKI68FdwsTtGhcVGZ2r/zAvVq4uKp8ZGY6NzsMBCRJinKeomNg8LK5qQ7IyAcf0t+6aCvrRmWvqeaMkEw2jm9F2jAHTyYrTakVb5utQg8uO+wsd3F78wN/RMUzl4P8mznkPJLiMiJ+NZzk7TJbzQ8X8pbCC6vKI8jOWrkeclYplWGXHzlpUyGyNbkInqzxRcPeMcc2M2La9TDlrNcfj8fHOxEQSLfHWtW97MLx2Oviy+jqzvvxqIUwzeDpze5Fz3pyBijjy4qYk5EPpYy2lig6afOC1PFF9RxGnSfQHN39TowHp+BM5MsWEOFgZiiHTruoMJlNagNtYBusHAv5E53/MdqWp3yK8GBiaYJsojSOWbHUoQtOQdN2bTPMTZvyPeiUBF0TYuHHaAM7JQjOy/us5C4dLi8n7daYZdyOMSZyjBtbUblpU+owo81tulLAxE/RlmpzgefLQXLLMfB97AeZWxioUA/SRLUp7KbNA3GCBFmNNzJnbODHpM2kodxfZPzBCtKTkR7kxtsrQhNtgaQldeTrG8ruAT9G2y5weX0la3Z/HKUyypqoeeZNtEk5jhwl03UHh+i9vAtZw/Kd2I1qzosec207lGMHggqR/RFtsvHo4srRP9z8B2qxXoL67Yj6Z7K4gPmDaa3yk4pXNNKmoyc1xsEtJYMg5W8fr6WHKv5L15l/M7rZIhwExSYJYIzl68N8T6hkhxpStPVt2lQEJqpN75M0s6kAe8XrY9pm58Kxmbx5u7JCNOxfz6NkUAQpB96t2K1L9tkxQlWN2avZJ0Jqx2mNNthskDpCjM/Q1omOi8XxRw/x6K43WW/b22bDmbO/F1q3qTLirB6B4uM0b7q+B1BlhNcOA0RH3X49HJsQVNKKMib8WxwndStZGS13xy4a9jBB/2tQ010SArxayi9nnNpErzb3Otv8d86hc+0UAg32BxuwVClfXevJCx5V0fwiOGapsnfrys0BNpC/iFz6cv6jmv61cNSG6xD7s1ty1RzdOITNDlT+bjhmoVJuxydn6QnyAVSm1Pvnjop0bLpV+rv73CYsfb1DPCEJ013G8eKnzNkXwhVVBGvBESSxLhfAREazBtG2NAw494n9h69Htj/sv+8+DvHQsZJnTrfQIWMyNZHTKk3dqnSJk7tNX4uV73Phk7XfL8GdjlSqkT1xlopO8g5pzwoCJ7Ch9ERsfHwtemVymn2j1UMLiBYgBxWINZ15pY02FS2GZPX3n+4qB/WNK1EtYVANVbuQveYdbGKuYisZfaVKhMEmPf/baYNaum9UB7QRgpyhbdKwnKIjIBx6Uufk30cblNYk33cLhxGCdj4NnSdsMXyeF50iRRv3/ynaHJtDcZF3eqVj7YKttM9EF6Vhsf23aHO4UGKCQj3bsE6cEDGyjGZ0rBjvXfzHaLvTe5H9T+x+7y7MrLDyYlw1QRZ8eajmq2PT1h1ud7ut22VI77v8+01DCKC7yVvYUZHrt9DmioQEZnX0cDWRBVZ+ztnSML6iiSPkOUcii2nbHsQpyHFKqLMtOtvprfw6OIl4STIXLWMhL7lNzbKXdQ8kP+ltHXVJr8DMFSSz3zrQzba7fn+3te3VlC59RXXiBRRtxzQ+wQ+YOH3aIzveTjr9xgNRT01He1RtkDehdzF0uof/dLo4Z/W//ReYaQa5YaoY4OSpDMBm4DBRzIJAoI1fjeM1cyVppNW68ckqQA1ulkTe7bg8P30A9wd7LKfvU6UuV0DcHp8A2uk7iwG4MVygrVbPzDBvs1FdcpkZr1sSN/TBWfmv1glyW+9L4DyhQu5fbsD64DzdwqozGjqyWsX5IuomETnfGd5AfyQfk5BJnnfS1nEshEV3Rk1CHo09p69v7wc2aCtP/dF7nVSwQm9I4T46Fwi1NVNF5GUbquPy/S+1Heinb6wpydwHojAR7hxmQLqcO/do1PcZYtpEMu339+pwAjaQrKiaaeafV7vlVVW965fiqNCp8K7L3eqsZK9yfteXky7O931qQXkhmg5P4WK0ymrMpffprem0Ix5a6wmizf8ov0uV/obDOsHTY0m1Bs/UkYhwalJP7cOWjt0W3BOo8892ygDZ9al66Rdi1niGOPO9y/Q4TCV33fVwd53zBknziJ3ymjYlOhF4KDL9rM9LA1MMjmpWv1F7MpUXo8oX1ead95i7JR4dDMVF4M0v8cd0+hlfRgO/mTPqXAZFGwpLDYGnoBQdMLzRWdSwy19qN3gBGF6l9/ArUP5vpC16fG5RkZKvzvJ9IoFaTxko2nBpJQhPWemp+uCviStKWQLlh9fHGXQPaHojbeqkkNeAOHNG0YYPf1LHpxVr6Qw4wWbyDl+hwoNGzSWsEky6L++k7WVHLFY9rh9Goo5gG6A/whJeBphAlIzdmzCPqxD3AY5RwQ4eKBhQbm+lrfdC2qijLBRtF/RH0FXlzoYlJUodoK2salLxbhw7AYGEnMtbaXviBLdnwWpH2HaQT4qnYBe/4xFmoJmkgV125aYKcgfu/6BaWj6s99L2MEv1NMhUm6INezuKtuKPMNlo2koPLGmiDSb3e2lzRkL+FPTx2Io2/C09SSnazElKS5v83Ztpe+Is1KdAJ5CVbsOjgdBy6farrQnYIZoZSwLYx0awSS2vP6Lb3MWQfwZH6aQ2QJDDA9vrS2c+w6IHgM04Vatg2gY4ogXLK/gW76btyy+ZqIZEBze1uYsWygs2ZlOZoGYeIlYRZRzFiINS8OIc5X28m7aXnCru2l+lnSu9zvaUE1oaFIbPUKELV1SvmJiBr4VOuVfnDILSfDttLzjDHp93YEC78j7M4iF4U3JPFpyxgkiBIhXgRG1fV+KmD64DslXG/G1V/V9/Y4LzjEAcOPosNXpvBDpB1urALPVELM1ZdeoNGCUqEA25xBTmudoIq7ZFlbpu/ZY6xK++n4M+GrOAGaY8T6cTvcMJpEuxJEbL4Wy4VbFaffKgfodB3NvMhvqdLX7tWGA2XxzC2+1RXP8V+KIRwtzFkmZQnKMDffVmer01mPmDm6ezeiqWhg6j40FyEypSio50nOp0YvF6P/M0uG8CeZbH06gf8aLQkILRm9GH+AQtfQU+kA69ogVFsBg6TMWyo/Ts/U6MG3fzPmDNzkgjqENH7EAyYyhcsqUC7eYbG6+EHuEDlNuyFDQbvEW9US8ofApMXBtqNlKpqYM+M8/68Yx5ndVyYcyuwl3UCnnEzcikmsQ+PpH1NbjTZ189JC1pzq1Vh7jwsJOhg+xZYL2dqZN+GFuJeVA/lcesgGJCfJrhvWiCBsD9d20m6RavOK1evvokcg1/e7TlIA0Dwf1iA2G08IQvOM//odKw2UdSfp1/77MLmW7cTbgvLxHJtf6qoumg/Lb4OnyisuBluC/O4R9gMn2itqe7PMTjSj13t+NDHF+XjnW321tO4zj+WB2d73SeHVcf+SXTJc3K+rjIbxAvju/fet+iRYsWLVq0aNGiRYsWLVq0aNGiRYsWLVq0aNGiRYsWLVq0aNGiRYsWLf4a/wfDfC+M88LzEAAAAABJRU5ErkJggg==;" vertex="1" parent="jKN2Zn_ct08RqaABAzar-26">
          <mxGeometry x="13.16032258064513" y="44.870000000000005" width="53.677419354838705" height="28.2258064516129" as="geometry" />
        </mxCell>
        <mxCell id="jKN2Zn_ct08RqaABAzar-6" value="" style="shape=image;verticalLabelPosition=bottom;labelBackgroundColor=default;verticalAlign=top;aspect=fixed;imageAspect=0;image=https://miro.medium.com/v2/resize:fit:256/1*2Q4FsymDIDtWS_aqiDbwSA.png;" vertex="1" parent="jKN2Zn_ct08RqaABAzar-26">
          <mxGeometry x="21.45322580645154" y="8.789999999999964" width="37.096774193548384" height="36.08064516129032" as="geometry" />
        </mxCell>
        <mxCell id="jKN2Zn_ct08RqaABAzar-31" value="" style="edgeStyle=orthogonalEdgeStyle;html=1;endArrow=block;elbow=vertical;startArrow=none;endFill=1;strokeColor=#545B64;rounded=0;" edge="1" parent="jKN2Zn_ct08RqaABAzar-1">
          <mxGeometry width="100" relative="1" as="geometry">
            <mxPoint x="330" y="115.54" as="sourcePoint" />
            <mxPoint x="360" y="115.54" as="targetPoint" />
          </mxGeometry>
        </mxCell>
        <mxCell id="jKN2Zn_ct08RqaABAzar-33" value="" style="edgeStyle=orthogonalEdgeStyle;html=1;endArrow=block;elbow=vertical;startArrow=none;endFill=1;strokeColor=#545B64;rounded=0;" edge="1" parent="jKN2Zn_ct08RqaABAzar-1">
          <mxGeometry width="100" relative="1" as="geometry">
            <mxPoint x="160" y="115.54000000000002" as="sourcePoint" />
            <mxPoint x="190" y="115.54000000000002" as="targetPoint" />
          </mxGeometry>
        </mxCell>
        <mxCell id="jKN2Zn_ct08RqaABAzar-10" value="users" style="sketch=0;outlineConnect=0;gradientColor=none;fontColor=#545B64;strokeColor=none;fillColor=#879196;dashed=0;verticalLabelPosition=bottom;verticalAlign=top;align=center;html=1;fontSize=12;fontStyle=0;aspect=fixed;shape=mxgraph.aws4.illustration_users;pointerEvents=1" vertex="1" parent="1">
          <mxGeometry x="80" y="310" width="40" height="40" as="geometry" />
        </mxCell>
        <mxCell id="jKN2Zn_ct08RqaABAzar-23" value="" style="edgeStyle=orthogonalEdgeStyle;html=1;endArrow=block;elbow=vertical;startArrow=none;endFill=1;strokeColor=#545B64;rounded=0;" edge="1" parent="1">
          <mxGeometry width="100" relative="1" as="geometry">
            <mxPoint x="126" y="334.8" as="sourcePoint" />
            <mxPoint x="166" y="334.8" as="targetPoint" />
          </mxGeometry>
        </mxCell>
      </root>
    </mxGraphModel>
  </diagram>
</mxfile>
